<svg width="504" height="64" viewBox="0 0 504 64" fill="none" xmlns="http://www.w3.org/2000/svg">
<path d="M0.856 63.056V9.392H9.4V0.943996H37.816V9.392H46.456V37.904H37.816V46.352H12.184V63.056H0.856ZM12.184 34.352H35.032V12.944H12.184V34.352ZM58.1373 63.056V17.744H69.4653V63.056H58.1373ZM58.1373 12.944V0.943996H69.4653V12.944H58.1373ZM81.1998 63.056V51.152H89.7438V42.8H98.1918V37.904H89.7438V29.648H81.1998V17.744H92.5278V26.096H101.072V34.352H106.832V26.096H115.376V17.744H126.8V29.648H118.16V37.904H109.712V42.8H118.16V51.152H126.8V63.056H115.376V54.8H106.832V46.352H101.072V54.8H92.5278V63.056H81.1998ZM147.025 63.056V54.8H138.481V0.943996H149.809V51.152H172.657V42.8H184.081V54.8H175.441V63.056H147.025Z" fill="#EE9B01"/>
<path d="M215.4 63.056V54.8H206.856V42.8H218.184V51.152H241.032V37.904H215.4V29.648H206.856V9.392H215.4V0.943996H243.816V9.392H252.456V21.296H241.032V12.944H218.184V26.096H243.816V34.352H252.456V54.8H243.816V63.056H215.4ZM277.286 63.056V54.8H268.838V29.648H260.294V17.744H268.838V0.943996H280.166V17.744H305.894V29.648H280.166V51.152H303.11V42.8H314.534V54.8H305.894V63.056H277.286ZM332.869 63.056V54.8H324.325V17.744H335.653V51.152H358.501V17.744H369.925V54.8H361.285V63.056H332.869ZM388.275 63.056V54.8H379.731V26.096H388.275V17.744H414.003V0.943996H425.427V54.8H416.691V63.056H388.275ZM391.059 51.152H413.907V29.648H391.059V51.152ZM437.012 63.056V17.744H448.34V63.056H437.012ZM437.012 12.944V0.943996H448.34V12.944H437.012ZM466.744 63.056V54.8H458.2V26.096H466.744V17.744H495.16V26.096H503.8V54.8H495.16V63.056H466.744ZM469.528 51.152H492.376V29.648H469.528V51.152Z" fill="#68904D"/>
</svg>
